<mxfile host="app.diagrams.net" agent="Mozilla/5.0 (Macintosh; Intel Mac OS X 10_15_7) AppleWebKit/537.36 (KHTML, like Gecko) Chrome/133.0.0.0 Safari/537.36" version="26.0.15">
  <diagram name="Page-1" id="00TREbmpHSXeFXCKR7Jl">
    <mxGraphModel dx="954" dy="639" grid="1" gridSize="10" guides="1" tooltips="1" connect="1" arrows="1" fold="1" page="1" pageScale="1" pageWidth="827" pageHeight="1169" math="0" shadow="0">
      <root>
        <mxCell id="0" />
        <mxCell id="1" parent="0" />
        <mxCell id="1kIv5QW9QdR_SQEDATfp-1" value="100" style="ellipse;whiteSpace=wrap;html=1;aspect=fixed;" vertex="1" parent="1">
          <mxGeometry x="350" y="100" width="50" height="50" as="geometry" />
        </mxCell>
        <mxCell id="1kIv5QW9QdR_SQEDATfp-2" value="" style="endArrow=classic;html=1;rounded=0;" edge="1" parent="1">
          <mxGeometry width="50" height="50" relative="1" as="geometry">
            <mxPoint x="390" y="150" as="sourcePoint" />
            <mxPoint x="450" y="230" as="targetPoint" />
          </mxGeometry>
        </mxCell>
        <mxCell id="1kIv5QW9QdR_SQEDATfp-3" value="" style="endArrow=classic;html=1;rounded=0;" edge="1" parent="1">
          <mxGeometry width="50" height="50" relative="1" as="geometry">
            <mxPoint x="360" y="150" as="sourcePoint" />
            <mxPoint x="300" y="230" as="targetPoint" />
          </mxGeometry>
        </mxCell>
        <mxCell id="1kIv5QW9QdR_SQEDATfp-4" value="85" style="ellipse;whiteSpace=wrap;html=1;aspect=fixed;" vertex="1" parent="1">
          <mxGeometry x="270" y="230" width="50" height="50" as="geometry" />
        </mxCell>
        <mxCell id="1kIv5QW9QdR_SQEDATfp-5" value="90" style="ellipse;whiteSpace=wrap;html=1;aspect=fixed;" vertex="1" parent="1">
          <mxGeometry x="439" y="228" width="50" height="50" as="geometry" />
        </mxCell>
        <mxCell id="1kIv5QW9QdR_SQEDATfp-6" value="50" style="ellipse;whiteSpace=wrap;html=1;aspect=fixed;" vertex="1" parent="1">
          <mxGeometry x="183" y="351" width="50" height="50" as="geometry" />
        </mxCell>
        <mxCell id="1kIv5QW9QdR_SQEDATfp-7" value="" style="endArrow=classic;html=1;rounded=0;" edge="1" parent="1">
          <mxGeometry width="50" height="50" relative="1" as="geometry">
            <mxPoint x="270" y="270" as="sourcePoint" />
            <mxPoint x="210" y="350" as="targetPoint" />
          </mxGeometry>
        </mxCell>
        <mxCell id="1kIv5QW9QdR_SQEDATfp-8" value="n children is 2n + 1, 2n + 2&lt;br&gt;0 -&amp;gt; 1, 2&lt;br&gt;1 -&amp;gt; 3, 4&lt;br&gt;n + 1 -&amp;gt; 2(n+1) +1&lt;br&gt;2n + 3, 2n + 4&lt;br&gt;&lt;br&gt;&lt;div&gt;&lt;br&gt;x = 2n + 1&lt;br&gt;n = &lt;b&gt;(x - 1) / 2&lt;/b&gt; // if x is odd&lt;/div&gt;&lt;div&gt;n = (x - 2) / 2 // if x is even&lt;/div&gt;" style="text;html=1;align=center;verticalAlign=middle;whiteSpace=wrap;rounded=0;" vertex="1" parent="1">
          <mxGeometry x="500" y="15" width="310" height="220" as="geometry" />
        </mxCell>
        <mxCell id="1kIv5QW9QdR_SQEDATfp-9" value="" style="endArrow=classic;html=1;rounded=0;" edge="1" parent="1">
          <mxGeometry width="50" height="50" relative="1" as="geometry">
            <mxPoint x="310" y="273" as="sourcePoint" />
            <mxPoint x="370" y="353" as="targetPoint" />
          </mxGeometry>
        </mxCell>
        <mxCell id="1kIv5QW9QdR_SQEDATfp-10" value="" style="ellipse;whiteSpace=wrap;html=1;aspect=fixed;" vertex="1" parent="1">
          <mxGeometry x="359" y="351" width="50" height="50" as="geometry" />
        </mxCell>
      </root>
    </mxGraphModel>
  </diagram>
</mxfile>
